# xmcd CD database file
#
# Track frame offsets:
#	150
#	18170
#	30450
#	49512
#	62585
#	75420
#	90735
#	100800
#	115935
#	130950
#	144702
#
# Disc length: 2193 seconds
#
# Revision: 3
# Processed by: cddbd v1.5.2PL0 Copyright (c) Steve Scherf et al.
# Submitted via: CDex 1.51
#
DISCID=83088f0b
DTITLE=Nanci Griffith - Lone Star State of Mind
DYEAR=1987
DGENRE=Country
TTITLE0=Lone Star State of Mind
TTITLE1=Cold Hearts - Closed Minds
TTITLE2=From A Distance
TTITLE3=Beacon Street
TTITLE4=Nickel Dreams
TTITLE5=Sing One for Sister
TTITLE6=Ford Econoline
TTITLE7=Trouble In The Fields
TTITLE8=Love In A Memory
TTITLE9=Let It Shine On Me
TTITLE10=There's A Light Beyond These Woods (Mary Margaret)
EXTD=YEAR: 1987
EXTT0=
EXTT1=
EXTT2=
EXTT3=
EXTT4=
EXTT5=
EXTT6=
EXTT7=
EXTT8=
EXTT9=
EXTT10=
PLAYORDER=
